<svg width="39" height="40" viewBox="0 0 39 40" fill="none" xmlns="http://www.w3.org/2000/svg">
<g id="&#240;&#159;&#166;&#134; icon &#34;arrow ios back&#34;">
<path id="Vector" d="M22.567 31.0941C22.3303 31.0949 22.0963 31.0426 21.8824 30.9411C21.6685 30.8397 21.48 30.6915 21.3308 30.5077L13.676 20.9985C13.4429 20.7149 13.3154 20.3592 13.3154 19.9921C13.3154 19.625 13.4429 19.2693 13.676 18.9857L21.6003 9.47659C21.8693 9.15293 22.2558 8.9494 22.6749 8.91076C23.094 8.87212 23.5113 9.00154 23.8349 9.27055C24.1586 9.53957 24.3621 9.92613 24.4007 10.3452C24.4394 10.7643 24.31 11.1816 24.0409 11.5052L16.9566 20.0001L23.8032 28.4949C23.997 28.7275 24.1201 29.0108 24.158 29.3112C24.1958 29.6116 24.1468 29.9166 24.0168 30.19C23.8867 30.4635 23.6811 30.6939 23.4241 30.8541C23.1672 31.0143 22.8698 31.0976 22.567 31.0941Z" fill="white"/>
</g>
</svg>
