<svg width="24" height="24" viewBox="0 0 24 24" fill="none" xmlns="http://www.w3.org/2000/svg">
<g id="Instagram">
<g id="vuesax/bulk/instagram">
<g id="instagram">
<path id="Vector" opacity="0.4" d="M16.19 2H7.81C4.17 2 2 4.17 2 7.81V16.18C2 19.83 4.17 22 7.81 22H16.18C19.82 22 21.99 19.83 21.99 16.19V7.81C22 4.17 19.83 2 16.19 2Z" fill="white" fill-opacity="0.8"/>
<path id="Vector_2" d="M12 15.88C14.1429 15.88 15.88 14.1429 15.88 12C15.88 9.85713 14.1429 8.12 12 8.12C9.85713 8.12 8.12 9.85713 8.12 12C8.12 14.1429 9.85713 15.88 12 15.88Z" fill="white" fill-opacity="0.8"/>
<path id="Vector_3" d="M17 7.50003C16.73 7.50003 16.48 7.40003 16.29 7.21003C16.2 7.11003 16.13 7.00003 16.08 6.88003C16.03 6.76003 16 6.63003 16 6.50003C16 6.37003 16.03 6.24003 16.08 6.12003C16.13 5.99003 16.2 5.89003 16.29 5.79003C16.52 5.56003 16.87 5.45003 17.19 5.52003C17.26 5.53003 17.32 5.55003 17.38 5.58003C17.44 5.60003 17.5 5.63003 17.56 5.67003C17.61 5.70003 17.66 5.75003 17.71 5.79003C17.8 5.89003 17.87 5.99003 17.92 6.12003C17.97 6.24003 18 6.37003 18 6.50003C18 6.63003 17.97 6.76003 17.92 6.88003C17.87 7.00003 17.8 7.11003 17.71 7.21003C17.61 7.30003 17.5 7.37003 17.38 7.42003C17.26 7.47003 17.13 7.50003 17 7.50003Z" fill="white" fill-opacity="0.8"/>
</g>
</g>
</g>
</svg>
