<svg width="33" height="33" viewBox="0 0 33 33" fill="none" xmlns="http://www.w3.org/2000/svg">
<path d="M25.8037 5.79761H6.90797C5.83408 5.79761 4.80418 6.22421 4.04483 6.98356C3.28549 7.74291 2.85889 8.7728 2.85889 9.84669V23.3436C2.85889 24.4175 3.28549 25.4474 4.04483 26.2068C4.80418 26.9661 5.83408 27.3927 6.90797 27.3927H25.8037C26.8776 27.3927 27.9075 26.9661 28.6668 26.2068C29.4262 25.4474 29.8528 24.4175 29.8528 23.3436V9.84669C29.8528 8.7728 29.4262 7.74291 28.6668 6.98356C27.9075 6.22421 26.8776 5.79761 25.8037 5.79761ZM24.8994 8.49699L16.3558 14.908L7.81226 8.49699H24.8994ZM25.8037 24.6933H6.90797C6.55001 24.6933 6.20671 24.5511 5.95359 24.298C5.70047 24.0449 5.55827 23.7016 5.55827 23.3436V10.1841L15.546 17.6749C15.7796 17.8501 16.0638 17.9448 16.3558 17.9448C16.6479 17.9448 16.932 17.8501 17.1656 17.6749L27.1534 10.1841V23.3436C27.1534 23.7016 27.0112 24.0449 26.7581 24.298C26.5049 24.5511 26.1616 24.6933 25.8037 24.6933Z" fill="white"/>
</svg>
