<svg width="33" height="33" viewBox="0 0 33 33" fill="none" xmlns="http://www.w3.org/2000/svg">
<path d="M32.7115 23.3814C32.7115 29.2768 29.1969 32.7914 23.3014 32.7914H21.3741C20.4833 32.7914 19.7544 32.0626 19.7544 31.1718V21.8265C19.7544 21.3892 20.1108 21.0167 20.5481 21.0167L23.3986 20.9681C23.6254 20.9519 23.8197 20.79 23.8683 20.5632L24.4352 17.4697C24.4838 17.1782 24.257 16.9029 23.9493 16.9029L20.4995 16.9514C20.046 16.9514 19.6896 16.5951 19.6735 16.1578L19.6087 12.1897C19.6087 11.9306 19.8192 11.7039 20.0946 11.7039L23.9817 11.639C24.257 11.639 24.4676 11.4285 24.4676 11.1532L24.4028 7.26603C24.4028 6.99069 24.1922 6.78015 23.9169 6.78015L19.5439 6.84496C16.8553 6.89354 14.7174 9.09623 14.766 11.7848L14.8469 16.2388C14.8631 16.6923 14.5068 17.0486 14.0533 17.0648L12.1098 17.0972C11.8344 17.0972 11.6239 17.3078 11.6239 17.5831L11.6725 20.6604C11.6725 20.9357 11.883 21.1463 12.1584 21.1463L14.1019 21.1139C14.5554 21.1139 14.9117 21.4702 14.9279 21.9075L15.0737 31.1394C15.0899 32.0464 14.3611 32.7914 13.4541 32.7914H9.72891C3.83345 32.7914 0.318848 29.2768 0.318848 23.3652V9.80887C0.318848 3.9134 3.83345 0.398804 9.72891 0.398804H23.3014C29.1969 0.398804 32.7115 3.9134 32.7115 9.80887V23.3814Z" fill="white"/>
</svg>
