<svg width="33" height="33" viewBox="0 0 33 33" fill="none" xmlns="http://www.w3.org/2000/svg">
<path d="M17.546 11.1963C18.6199 11.1963 19.6498 11.6229 20.4091 12.3823C21.1685 13.1416 21.5951 14.1715 21.5951 15.2454C21.5951 15.6034 21.7373 15.9467 21.9904 16.1998C22.2435 16.4529 22.5868 16.5951 22.9448 16.5951C23.3027 16.5951 23.646 16.4529 23.8991 16.1998C24.1523 15.9467 24.2944 15.6034 24.2944 15.2454C24.2944 13.4556 23.5835 11.7391 22.3179 10.4735C21.0523 9.20795 19.3358 8.49695 17.546 8.49695C17.188 8.49695 16.8447 8.63915 16.5916 8.89226C16.3385 9.14538 16.1963 9.48868 16.1963 9.84664C16.1963 10.2046 16.3385 10.5479 16.5916 10.801C16.8447 11.0541 17.188 11.1963 17.546 11.1963Z" fill="white"/>
<path d="M17.546 5.79765C20.0517 5.79765 22.4548 6.79305 24.2266 8.56487C25.9984 10.3367 26.9938 12.7398 26.9938 15.2455C26.9938 15.6035 27.136 15.9468 27.3892 16.1999C27.6423 16.453 27.9856 16.5952 28.3435 16.5952C28.7015 16.5952 29.0448 16.453 29.2979 16.1999C29.551 15.9468 29.6932 15.6035 29.6932 15.2455C29.6932 12.0239 28.4134 8.93416 26.1354 6.65611C23.8573 4.37806 20.7676 3.09827 17.546 3.09827C17.188 3.09827 16.8447 3.24047 16.5916 3.49358C16.3385 3.7467 16.1963 4.09 16.1963 4.44796C16.1963 4.80592 16.3385 5.14922 16.5916 5.40234C16.8447 5.65545 17.188 5.79765 17.546 5.79765Z" fill="white"/>
<path d="M29.3559 21.8725C29.2817 21.6558 29.1535 21.4616 28.9835 21.3081C28.8135 21.1547 28.6072 21.047 28.3841 20.9952L20.286 19.1461C20.0661 19.0963 19.8374 19.1023 19.6205 19.1636C19.4036 19.2249 19.2055 19.3395 19.0442 19.497C18.8553 19.6725 18.8418 19.686 17.9645 21.3596C15.0535 20.0182 12.7209 17.6761 11.3915 14.7596C13.1056 13.8958 13.1191 13.8958 13.2946 13.6934C13.4521 13.5321 13.5667 13.3341 13.628 13.1172C13.6893 12.9003 13.6953 12.6715 13.6455 12.4516L11.7964 4.44796C11.7446 4.22485 11.6369 4.01858 11.4835 3.84858C11.33 3.67857 11.1358 3.55042 10.9191 3.47618C10.6039 3.3636 10.2784 3.28223 9.94732 3.23324C9.60618 3.15414 9.25807 3.10893 8.90805 3.09827C7.26143 3.09827 5.68225 3.75238 4.51792 4.91672C3.35358 6.08106 2.69946 7.66024 2.69946 9.30686C2.70661 14.8173 4.89877 20.0999 8.79522 23.9964C12.6917 27.8928 17.9743 30.085 23.4847 30.0921C24.3001 30.0921 25.1074 29.9315 25.8607 29.6195C26.6139 29.3075 27.2984 28.8502 27.8749 28.2737C28.4514 27.6972 28.9087 27.0127 29.2207 26.2595C29.5327 25.5062 29.6933 24.6989 29.6933 23.8835C29.6937 23.54 29.6667 23.197 29.6123 22.8578C29.5556 22.5225 29.4698 22.1929 29.3559 21.8725ZM23.4847 27.3927C18.6892 27.3892 14.091 25.4826 10.7 22.0916C7.30904 18.7006 5.40242 14.1024 5.39885 9.30686C5.4024 8.37725 5.77326 7.48674 6.4306 6.8294C7.08793 6.17207 7.97845 5.80121 8.90805 5.79765H9.35345L10.7976 12.0602L10.0688 12.4381C8.90805 13.0455 7.99026 13.5314 8.47615 14.5842C9.26737 16.8241 10.5476 18.8596 12.2239 20.5429C13.9002 22.2262 15.9303 23.5149 18.1669 24.3154C19.3007 24.7743 19.7461 23.924 20.3534 22.7498L20.7449 22.0075L26.9939 23.4381V23.8835C26.9904 24.8131 26.6195 25.7037 25.9622 26.361C25.3049 27.0183 24.4143 27.3892 23.4847 27.3927Z" fill="white"/>
</svg>
